<svg width="566" height="462" viewBox="0 0 566 462" fill="none" xmlns="http://www.w3.org/2000/svg">
<ellipse cx="173.249" cy="398.36" rx="164.222" ry="44.1388" fill="#F7F5F5"/>
<g filter="url(#filter0_d_285_1055)">
<rect x="28.9209" y="161.68" width="442.342" height="270.934" rx="18.4309" transform="rotate(-19.847 28.9209 161.68)" fill="white"/>
</g>
<rect x="82.0503" y="224.362" width="340.444" height="11.6068" rx="5.8034" transform="rotate(-19.847 82.0503 224.362)" fill="#555050" fill-opacity="0.56"/>
<rect x="91.2695" y="249.38" width="139.46" height="11.6068" rx="5.8034" transform="rotate(-19.847 91.2695 249.38)" fill="#555050" fill-opacity="0.56"/>
<rect x="227.656" y="199.616" width="139.46" height="11.6068" rx="5.8034" transform="rotate(-19.847 227.656 199.616)" fill="#555050" fill-opacity="0.56"/>
<rect x="102.324" y="278.869" width="139.46" height="11.6068" rx="5.8034" transform="rotate(-19.847 102.324 278.869)" fill="#555050" fill-opacity="0.56"/>
<rect x="238.711" y="229.105" width="139.46" height="11.6068" rx="5.8034" transform="rotate(-19.847 238.711 229.105)" fill="#555050" fill-opacity="0.56"/>
<rect x="113.384" y="308.358" width="139.46" height="11.6068" rx="5.8034" transform="rotate(-19.847 113.384 308.358)" fill="#555050" fill-opacity="0.56"/>
<rect x="126.284" y="337.848" width="98.087" height="11.6068" rx="5.8034" transform="rotate(-19.847 126.284 337.848)" fill="#555050" fill-opacity="0.56"/>
<path d="M98.5195 171.003L108.083 197.898L103.672 199.466L97.1216 181.046L95.468 202.384L92.4109 203.471L77.6182 187.982L84.1684 206.402L79.7569 207.971L70.1931 181.076L74.9528 179.383L91.8947 197.116L93.7984 172.682L98.5195 171.003ZM133.316 176.327C133.601 177.127 133.806 177.867 133.932 178.549L117.641 184.342C118.375 185.999 119.493 187.142 120.996 187.77C122.498 188.398 124.074 188.419 125.725 187.832C128.099 186.988 129.422 185.398 129.696 183.063L134.456 181.37C134.508 183.56 133.908 185.59 132.655 187.46C131.418 189.294 129.549 190.657 127.046 191.547C125.008 192.271 123.016 192.471 121.07 192.146C119.14 191.786 117.417 190.946 115.901 189.625C114.402 188.269 113.263 186.495 112.483 184.302C111.703 182.109 111.458 180.031 111.748 178.068C112.055 176.07 112.847 174.336 114.126 172.864C115.43 171.383 117.127 170.271 119.216 169.528C121.229 168.812 123.178 168.613 125.063 168.931C126.949 169.248 128.615 170.051 130.06 171.338C131.497 172.6 132.583 174.263 133.316 176.327ZM128.216 176.571C127.612 174.955 126.569 173.859 125.085 173.282C123.601 172.705 122.021 172.715 120.344 173.312C118.822 173.853 117.693 174.806 116.958 176.172C116.214 177.512 116.033 179.044 116.413 180.768L128.216 176.571ZM163.609 153.741C165.286 153.145 166.906 152.961 168.47 153.19C170.059 153.41 171.471 154.07 172.705 155.171C173.965 156.263 174.939 157.777 175.627 159.712L180.1 172.288L175.727 173.843L171.489 161.924C170.81 160.015 169.814 158.728 168.502 158.061C167.18 157.368 165.694 157.316 164.043 157.903C162.392 158.49 161.26 159.474 160.646 160.854C160.05 162.2 160.091 163.827 160.769 165.736L165.008 177.655L160.635 179.21L156.397 167.291C155.718 165.382 154.722 164.094 153.41 163.428C152.088 162.735 150.602 162.682 148.951 163.27C147.3 163.857 146.168 164.841 145.554 166.221C144.958 167.567 144.999 169.194 145.678 171.103L149.916 183.022L145.504 184.59L137.922 163.268L142.334 161.7L143.201 164.137C143.611 163.003 144.284 161.994 145.219 161.11C146.154 160.225 147.253 159.558 148.517 159.108C150.22 158.503 151.871 158.323 153.469 158.568C155.067 158.813 156.471 159.491 157.679 160.602C157.866 159.082 158.509 157.706 159.611 156.471C160.703 155.211 162.036 154.301 163.609 153.741ZM187.541 149.198C187.922 147.9 188.643 146.699 189.703 145.596C190.78 144.457 192.119 143.603 193.718 143.035C195.601 142.365 197.465 142.211 199.308 142.573C201.151 142.934 202.809 143.798 204.283 145.163C205.747 146.502 206.86 148.242 207.621 150.383C208.383 152.524 208.628 154.602 208.356 156.617C208.075 158.606 207.331 160.353 206.122 161.858C204.93 163.328 203.406 164.393 201.548 165.053C199.897 165.641 198.312 165.841 196.793 165.655C195.299 165.459 194 164.991 192.894 164.251L193.994 167.347L189.583 168.916L179.4 140.28L183.811 138.711L187.541 149.198ZM203.132 151.979C202.61 150.509 201.85 149.355 200.855 148.517C199.877 147.645 198.788 147.117 197.589 146.933C196.407 146.714 195.248 146.806 194.113 147.21C193.004 147.604 192.047 148.264 191.243 149.189C190.464 150.106 189.958 151.216 189.724 152.519C189.516 153.814 189.674 155.196 190.196 156.667C190.719 158.137 191.475 159.322 192.463 160.22C193.467 161.083 194.56 161.624 195.742 161.843C196.95 162.053 198.109 161.961 199.218 161.566C200.354 161.163 201.31 160.503 202.089 159.587C202.884 158.635 203.381 157.5 203.58 156.179C203.805 154.85 203.655 153.45 203.132 151.979ZM214.383 147.979C213.622 145.837 213.386 143.785 213.676 141.822C213.992 139.85 214.75 138.142 215.951 136.698C217.169 135.219 218.706 134.149 220.564 133.488C222.241 132.892 223.818 132.709 225.294 132.939C226.788 133.135 228.083 133.59 229.18 134.304L228.079 131.208L232.529 129.626L240.111 150.948L235.661 152.53L234.533 149.357C234.142 150.629 233.421 151.83 232.37 152.96C231.319 154.089 229.967 154.947 228.316 155.534C226.485 156.186 224.643 156.318 222.79 155.93C220.929 155.517 219.248 154.632 217.749 153.277C216.267 151.886 215.145 150.12 214.383 147.979ZM231.863 141.85C231.34 140.379 230.576 139.213 229.572 138.349C228.593 137.477 227.513 136.931 226.331 136.712C225.149 136.493 223.99 136.585 222.855 136.989C221.72 137.393 220.763 138.053 219.984 138.969C219.197 139.859 218.686 140.956 218.452 142.26C218.235 143.529 218.388 144.898 218.911 146.369C219.434 147.839 220.189 149.024 221.177 149.922C222.19 150.811 223.293 151.378 224.484 151.623C225.692 151.833 226.851 151.74 227.96 151.346C229.095 150.942 230.052 150.282 230.831 149.366C231.609 148.45 232.102 147.344 232.31 146.05C232.535 144.72 232.386 143.32 231.863 141.85ZM244.507 137.354C243.727 135.161 243.482 133.083 243.772 131.12C244.079 129.122 244.858 127.392 246.111 125.929C247.364 124.467 249.009 123.373 251.047 122.648C253.627 121.731 255.975 121.593 258.093 122.235C260.226 122.842 261.994 124.175 263.394 126.235L258.635 127.927C257.871 127.007 256.959 126.402 255.896 126.111C254.834 125.82 253.658 125.905 252.368 126.363C250.562 127.005 249.347 128.164 248.722 129.839C248.114 131.48 248.218 133.448 249.034 135.744C249.851 138.04 251.017 139.645 252.534 140.558C254.076 141.463 255.75 141.594 257.556 140.952C260.11 140.044 261.401 138.321 261.428 135.783L266.188 134.09C266.339 136.477 265.793 138.619 264.549 140.514C263.296 142.384 261.405 143.768 258.877 144.667C256.839 145.392 254.872 145.582 252.978 145.239C251.074 144.87 249.377 144.02 247.887 142.69C246.413 141.325 245.287 139.547 244.507 137.354ZM271.552 127.649C270.791 125.508 270.555 123.456 270.845 121.493C271.161 119.521 271.919 117.812 273.12 116.368C274.338 114.889 275.875 113.819 277.733 113.159C279.41 112.562 280.987 112.379 282.463 112.61C283.957 112.805 285.252 113.26 286.349 113.974L285.248 110.879L289.698 109.296L297.28 130.618L292.83 132.201L291.702 129.028C291.311 130.3 290.591 131.501 289.539 132.63C288.488 133.759 287.137 134.618 285.485 135.205C283.654 135.856 281.812 135.988 279.959 135.601C278.098 135.187 276.418 134.303 274.918 132.947C273.436 131.556 272.314 129.79 271.552 127.649ZM289.032 121.52C288.509 120.05 287.746 118.883 286.741 118.02C285.762 117.147 284.682 116.601 283.5 116.382C282.318 116.163 281.159 116.256 280.024 116.659C278.889 117.063 277.932 117.723 277.154 118.639C276.366 119.53 275.855 120.627 275.621 121.93C275.404 123.199 275.557 124.569 276.08 126.039C276.603 127.51 277.358 128.694 278.346 129.592C279.36 130.481 280.462 131.048 281.653 131.293C282.861 131.503 284.02 131.411 285.129 131.016C286.264 130.612 287.221 129.953 288 129.036C288.778 128.12 289.271 127.015 289.48 125.72C289.704 124.391 289.555 122.991 289.032 121.52Z" fill="#3B3737"/>
<defs>
<filter id="filter0_d_285_1055" x="0.872578" y="0.0555515" width="564.149" height="461.117" filterUnits="userSpaceOnUse" color-interpolation-filters="sRGB">
<feFlood flood-opacity="0" result="BackgroundImageFix"/>
<feColorMatrix in="SourceAlpha" type="matrix" values="0 0 0 0 0 0 0 0 0 0 0 0 0 0 0 0 0 0 127 0" result="hardAlpha"/>
<feOffset dy="16.603"/>
<feGaussianBlur stdDeviation="16.603"/>
<feComposite in2="hardAlpha" operator="out"/>
<feColorMatrix type="matrix" values="0 0 0 0 0.3875 0 0 0 0 0.3875 0 0 0 0 0.3875 0 0 0 0.35 0"/>
<feBlend mode="normal" in2="BackgroundImageFix" result="effect1_dropShadow_285_1055"/>
<feBlend mode="normal" in="SourceGraphic" in2="effect1_dropShadow_285_1055" result="shape"/>
</filter>
</defs>
</svg>
