<svg width="338" height="232" viewBox="0 0 338 232" fill="none" xmlns="http://www.w3.org/2000/svg">
<rect x="208.184" y="78" width="23.2462" height="125.97" rx="11.6231" transform="rotate(42.9855 208.184 78)" fill="#CA3144"/>
<rect width="23.2462" height="125.97" rx="11.6231" transform="matrix(-0.731526 0.681814 0.681814 0.731526 132.005 78)" fill="#CA3144"/>
<path d="M83.8436 33.4441C85.3466 33.0695 86.9012 33.8299 87.5281 35.2463L108.163 81.872C109.503 84.8992 105.91 87.7085 103.295 85.6783L52.8243 46.4903C50.7238 44.8594 51.4274 41.525 54.0077 40.8817L83.8436 33.4441Z" fill="#FFC8CE"/>
<path d="M296.993 15.9199C295.49 15.5452 293.936 16.3057 293.309 17.7221L272.674 64.3478C271.334 67.3749 274.927 70.1843 277.542 68.1541L328.013 28.966C330.113 27.3351 329.409 24.0007 326.829 23.3575L296.993 15.9199Z" fill="#FF7E8E"/>
<path d="M20.1066 127.106C20.6164 126.009 21.8415 125.437 23.01 125.751L61.4772 136.087C63.9747 136.758 63.9193 140.32 61.4023 140.913L12.8157 152.363C10.7937 152.84 9.11212 150.776 9.98727 148.892L20.1066 127.106Z" fill="#FF7E8E"/>
<path d="M312.76 123.92C312.25 122.822 311.025 122.25 309.856 122.564L271.389 132.9C268.892 133.571 268.947 137.134 271.464 137.727L320.05 149.177C322.072 149.653 323.754 147.589 322.879 145.705L312.76 123.92Z" fill="#FFC8CE"/>
<path d="M85.8361 222.315C86.7314 222.538 87.6574 222.085 88.0309 221.241L100.323 193.468C101.121 191.664 98.9804 189.991 97.4229 191.2L67.3587 214.544C66.1075 215.515 66.5266 217.501 68.0636 217.884L85.8361 222.315Z" fill="#FFC8CE"/>
<path d="M243.342 212.756C242.446 212.979 241.52 212.526 241.147 211.682L228.855 183.908C228.057 182.105 230.197 180.432 231.755 181.641L261.819 204.984C263.07 205.956 262.651 207.942 261.114 208.325L243.342 212.756Z" fill="#FF7E8E"/>
</svg>
