<svg width="567" height="477" viewBox="0 0 567 477" fill="none" xmlns="http://www.w3.org/2000/svg">
<g filter="url(#filter0_d_285_1080)">
<rect x="-16.1763" y="184.263" width="432.174" height="264.706" rx="18.0072" transform="rotate(-19.847 -16.1763 184.263)" fill="white"/>
</g>
<rect x="35.7319" y="245.503" width="332.618" height="11.34" rx="5.67" transform="rotate(-19.847 35.7319 245.503)" fill="#555050" fill-opacity="0.56"/>
<rect x="44.7393" y="269.947" width="136.255" height="11.34" rx="5.67" transform="rotate(-19.847 44.7393 269.947)" fill="#555050" fill-opacity="0.56"/>
<rect x="177.991" y="221.326" width="136.255" height="11.34" rx="5.67" transform="rotate(-19.847 177.991 221.326)" fill="#555050" fill-opacity="0.56"/>
<rect x="55.54" y="298.758" width="136.255" height="11.34" rx="5.67" transform="rotate(-19.847 55.54 298.758)" fill="#555050" fill-opacity="0.56"/>
<rect x="188.792" y="250.138" width="136.255" height="11.34" rx="5.67" transform="rotate(-19.847 188.792 250.138)" fill="#555050" fill-opacity="0.56"/>
<rect x="66.3452" y="327.569" width="136.255" height="11.34" rx="5.67" transform="rotate(-19.847 66.3452 327.569)" fill="#555050" fill-opacity="0.56"/>
<rect x="78.9485" y="356.381" width="95.8323" height="11.34" rx="5.67" transform="rotate(-19.847 78.9485 356.381)" fill="#555050" fill-opacity="0.56"/>
<path d="M55.0911 221.845L50.781 223.378L30.8352 208.367L37.8129 227.989L33.5029 229.522L24.1454 203.208L28.4555 201.675L48.3878 216.648L41.4235 197.063L45.7336 195.531L55.0911 221.845ZM75.9898 190.947L83.3978 211.779L79.0877 213.312L78.2138 210.854C77.838 211.953 77.1853 212.952 76.2555 213.85C75.342 214.715 74.2677 215.366 73.0326 215.805C71.3943 216.388 69.7988 216.572 68.2461 216.358C66.7187 216.134 65.3393 215.489 64.1081 214.422C62.9021 213.346 61.963 211.863 61.2908 209.973L56.9348 197.723L61.207 196.204L65.3345 207.811C65.9978 209.676 66.975 210.947 68.2661 211.623C69.5482 212.275 70.9959 212.313 72.609 211.74C74.2221 211.166 75.3202 210.222 75.9032 208.907C76.5025 207.559 76.4705 205.952 75.8073 204.086L71.6798 192.479L75.9898 190.947ZM87.2265 178.902L97.1755 206.879L92.8654 208.412L82.9164 180.434L87.2265 178.902ZM100.418 179.151C99.6371 179.429 98.8876 179.397 98.1701 179.056C97.4525 178.715 96.9549 178.154 96.677 177.372C96.3991 176.591 96.4308 175.842 96.7718 175.124C97.1129 174.407 97.6741 173.909 98.4555 173.631C99.2117 173.362 99.9485 173.398 100.666 173.739C101.384 174.08 101.881 174.642 102.159 175.423C102.437 176.204 102.405 176.954 102.064 177.671C101.723 178.389 101.175 178.882 100.418 179.151ZM103.517 181.158L110.925 201.99L106.615 203.523L99.207 182.691L103.517 181.158ZM128.047 196.285C126.409 196.867 124.831 197.102 123.314 196.988C121.814 196.84 120.506 196.397 119.392 195.657C118.268 194.893 117.457 193.889 116.958 192.647L121.42 191.061C121.809 191.916 122.489 192.512 123.46 192.848C124.448 193.149 125.521 193.094 126.681 192.682C127.891 192.252 128.743 191.693 129.237 191.007C129.747 190.286 129.872 189.56 129.612 188.829C129.334 188.047 128.75 187.602 127.859 187.493C126.994 187.375 125.674 187.376 123.9 187.496C122.185 187.623 120.764 187.66 119.637 187.606C118.511 187.552 117.434 187.239 116.408 186.668C115.406 186.087 114.663 185.116 114.179 183.755C113.785 182.646 113.754 181.521 114.087 180.381C114.41 179.215 115.083 178.152 116.105 177.193C117.152 176.224 118.469 175.458 120.057 174.893C122.426 174.051 124.544 173.979 126.411 174.678C128.294 175.342 129.654 176.69 130.49 178.721L126.18 180.254C125.772 179.348 125.13 178.739 124.252 178.427C123.374 178.114 122.356 178.164 121.196 178.576C120.062 178.98 119.269 179.503 118.816 180.147C118.364 180.79 118.263 181.465 118.514 182.171C118.711 182.725 119.078 183.12 119.616 183.355C120.154 183.589 120.753 183.717 121.413 183.738C122.065 183.733 123.016 183.693 124.267 183.617C125.922 183.483 127.305 183.46 128.415 183.547C129.542 183.601 130.601 183.906 131.594 184.461C132.586 185.017 133.333 185.958 133.833 187.285C134.254 188.47 134.303 189.645 133.979 190.811C133.656 191.976 132.983 193.039 131.961 193.998C130.965 194.949 129.66 195.711 128.047 196.285ZM168.07 152.07L165.331 171.911L168.719 181.438L164.409 182.971L161.02 173.444L146.331 159.8L151.133 158.093L161.804 168.821L163.307 153.764L168.07 152.07ZM196.074 148.244L203.482 169.076L199.172 170.609L198.298 168.152C197.922 169.251 197.269 170.249 196.339 171.148C195.426 172.012 194.351 172.664 193.116 173.103C191.478 173.686 189.883 173.87 188.33 173.655C186.802 173.432 185.423 172.787 184.192 171.72C182.986 170.644 182.047 169.161 181.375 167.27L177.019 155.021L181.291 153.501L185.418 165.108C186.082 166.973 187.059 168.244 188.35 168.921C189.632 169.572 191.08 169.611 192.693 169.037C194.306 168.464 195.404 167.52 195.987 166.205C196.586 164.856 196.554 163.249 195.891 161.384L191.764 149.777L196.074 148.244ZM217.494 152.382L230.794 159.364L224.972 161.434L214.073 155.217L217.259 164.177L212.949 165.71L203 137.732L207.31 136.199L213.091 152.457L217.413 140.656L223.386 138.532L217.494 152.382Z" fill="#3B3737"/>
<path d="M559.43 68.7092L537.372 90.767C535.123 93.0158 531.487 93.0158 529.238 90.767L476.127 37.656C473.878 35.4071 473.878 31.7707 476.127 29.5219L498.185 7.46406C507.132 -1.48346 521.678 -1.48346 530.674 7.46406L559.43 36.2205C568.425 45.1681 568.425 59.7138 559.43 68.7092ZM457.179 48.4696L331.531 174.118L321.388 232.253C320 240.1 326.842 246.894 334.689 245.554L392.824 235.363L518.472 109.715C520.721 107.466 520.721 103.829 518.472 101.581L465.361 48.4696C463.065 46.2207 459.428 46.2207 457.179 48.4696ZM380.575 163.352C377.944 160.72 377.944 156.51 380.575 153.878L454.261 80.1926C456.892 77.561 461.103 77.561 463.735 80.1926C466.366 82.8242 466.366 87.0348 463.735 89.6665L390.049 163.352C387.417 165.984 383.207 165.984 380.575 163.352ZM363.302 203.592H386.269V220.961L355.407 226.367L340.527 211.487L345.933 180.625H363.302V203.592Z" fill="#555050"/>
<defs>
<filter id="filter0_d_285_1080" x="-43.58" y="26.3536" width="551.181" height="450.518" filterUnits="userSpaceOnUse" color-interpolation-filters="sRGB">
<feFlood flood-opacity="0" result="BackgroundImageFix"/>
<feColorMatrix in="SourceAlpha" type="matrix" values="0 0 0 0 0 0 0 0 0 0 0 0 0 0 0 0 0 0 127 0" result="hardAlpha"/>
<feOffset dy="16.2214"/>
<feGaussianBlur stdDeviation="16.2214"/>
<feComposite in2="hardAlpha" operator="out"/>
<feColorMatrix type="matrix" values="0 0 0 0 0.3875 0 0 0 0 0.3875 0 0 0 0 0.3875 0 0 0 0.35 0"/>
<feBlend mode="normal" in2="BackgroundImageFix" result="effect1_dropShadow_285_1080"/>
<feBlend mode="normal" in="SourceGraphic" in2="effect1_dropShadow_285_1080" result="shape"/>
</filter>
</defs>
</svg>
